<?xml version="1.0" encoding="UTF-8"?>
<svg version="1.1" viewBox="0 0 1600 1600" width="736" height="736" xmlns="http://www.w3.org/2000/svg">
<path transform="translate(0)" d="m0 0h1600v1600h-1600z"/>
<path transform="translate(352,465)" d="m0 0 3 1 7 11 14 19 11 13 9 10 8 9 8 7 10 9 13 10 18 13 15 9 18 10 16 8 20 9 27 10 25 8 34 9 43 9 48 8 54 8 24 4 16 5 15 6 15 9 13 10 13 12 12 15 10 16 8 16 7 19 4 17 3 21v29l-4 27-6 20-7 17-9 16-9 13-12 14-12 11-14 10-12 7-21 8-20 4-8 1h-19l-27-3-25-5-33-11-20-9-23-12-22-14-19-14-11-9-14-12-13-12-20-20-7-8-12-14-13-16-13-18-18-27-15-25-10-18-8-15-13-28-6-13 1-2 9 9 14 10 27 14 27 10 23 7 35 8 37 6 36 4h6l-35-9-36-12-27-11-14-6-19-10-20-12-14-10-16-13-15-14-10-11-8-10-9-13-9-15-8-16-8-20-6-21-4-29-3-47z" fill="#283C7C"/>
<path transform="translate(838,517)" d="m0 0 7 6 16 12 23 12 16 5 20 4h33l19-3 12-4 15-6 21-5 17-2h10l18 2 20 5 15 6 15 8 11 8 11 9 7 7 11 14 8 13 8 17 3 6 24-7 24-5 27-4-1 3-11 6-16 12-13 11-11 12-12 17-10 19-9 24-5 24-1 8-2 50-3 26-5 23-8 26-10 24-12 23-10 16-12 16-9 11-12 13-15 15-11 9-16 12-19 12-23 12-21 9-28 9-52 10-53 10-55 12-44 11-31 9-36 12-29 11-25 11-24 12-22 13-12 8-17 13-14 12-11 11-11 14-9 13-10 18h-1v-56l2-18 5-21 6-17 8-16 9-15 10-13 14-15 11-9 15-11 23-12 16-6 26-6 8-1 25-1 159-1 26-2 33-5 27-6 33-11 20-9 17-10 16-12 13-12 8-8 11-14 9-14 9-16 10-24 7-23 6-29 3-23 1-10 1-42 3-24 7-24 8-18 10-16 11-14 15-15 12-9-14 8-14 9-10 8-10 9-7 6-7 8-8 9-20 7-16 10-12 12-10 14-9 16-9 20-15 39-11 26-11 23-12 19-12 16-9 10-8 9-8 7-4 2 3-9 9-24 6-20 5-23 2-13 1-12v-31l-3-26-6-28-12-36-4-17-1-7v-31l3-18 7-21v-2l-14-7-12-9-10-9-10-10-11-16-6-11-7-15-7-21z" fill="#28255F"/>
<path transform="translate(398,677)" d="m0 0 7 6 11 9 15 9 21 10 24 9 23 7 35 8 37 6 36 4h6l4-1 19 5 33 6 31 5 2 4v2l8 5 2 4-3 5-16 11-8 5-6 4-1 3h-2l-2 4-6 7-7 9-8 7-1 5h-2l-1 2v-2l-4 2v3l-1 1 6 3-4 5-7 1h-15l8 1 56 3 7 1 20 1 15 2 2 1 14 2 16 5 12 6 12 11 8 11 6 14 4 19v23l-3 17v4l-3 2-15 5-16 3-8 1h-19l-27-3-25-5-33-11-20-9-23-12-22-14-19-14-11-9-14-12-13-12-20-20-7-8-12-14-13-16-13-18-18-27-15-25-10-18-8-15-13-28-6-13z" fill="#3BB0E6"/>
<path transform="translate(838,517)" d="m0 0 7 6 16 12 23 12 16 5 20 4h33l19-3 12-4 15-6 21-5 17-2h10v1h-5v22h70l1 2h-71v39l13-1h25l25 3 15 3 20 6 16 8 9 7 5 5v3l-23 11-4 4-4 1-19 11-16 12-12 11-6 5-7 8-8 9-20 7-16 10-12 12-10 14-9 16-9 20-15 39-11 26-11 23-12 19-12 16-9 10-8 9-8 7-4 2 3-9 9-24 6-20 5-23 2-13 1-12v-31l-3-26-6-28-12-36-4-17-1-7v-31l3-18 7-21v-2l-14-7-12-9-10-9-10-10-11-16-6-11-7-15-7-21z" fill="#2363A9"/>
<path transform="translate(671,702)" d="m0 0h7l-4 7-31 31 3 1 11-10 4-5 10-6 8-3 3-5 10 1 16-1 2-1 20 2 2-1 10 4 18 6 9 2 26 9 4 4 9 4v2h2l4 4 7 6-1-5-4-2-1-4 7 6 6 4v2h2l-1 2-5-2 5 6 5 3h3l1-6 11 7 7 6 4 2 6 8-2 6 5 2 4-1-1 7 6 8 3 3 2 6 1 7 1 6h2v-22l-1-16-3-14-2-9-1-5h3l6 20 4 27v29l-4 27-6 20-7 17-9 16-9 13-12 14-12 11-14 10-12 7-5 2-4-1 3-13 1-7v-23l-4-19-4-10-7-11-9-10-8-6-17-7-13-3-9-1-10-2-7-1-20-1-7-1-56-3-9-1 2-2h21l1-3 2-2-6-3 2-2v-3l5-1h2v-6l9-7 10-13 5-6h2l1-4 10-7 10-6 11-8 1-4-5-5-6-3 1-3-1-2-43-7-34-7-6-2-16-3-30-8-10-4v-2l8 1 18 5h3l-4-2-8-1 2-2h14l4-2 5-5 5-2 16-2v2l10-2 6-3 11-3 8-5 7-3z" fill="#28245E"/>
<path transform="translate(657,343)" d="m0 0h1l3 36 5 28 6 23 8 23 11 25 13 25 12 20 17 25 16 21 11 14 11 13 9 11 9 10 6 8-11-2-107-17-29-5-41-9-22-6-2-2-3-23-1-23 2-28 5-30 2-4 11 16 13 16 15 15 14 11 14 9 17 10-5-5-12-11-13-13-8-10-13-18-9-16-8-17-6-20 1-6 8-19 8-16 10-18 10-15 10-13 11-12z" fill="#283D7D"/>
<path transform="translate(398,677)" d="m0 0 7 6 11 9 15 9 21 10 24 9 23 7 35 8 37 6 36 4h6l4-1 19 5 33 6 31 5 2 4v2l8 5 2 4-3 5-16 11-8 5-6 4-1 3h-2l-2 4-6 7-7 9-8 7-1 5h-2l-1 2v-2l-4 2v3l-1 1 6 3-4 5-7 1h-15l8 1v1h-14l-24-3-23-5-17-5-12-4-26-12-15-9-13-9-17-14-10-10-10-9-6-8v3h-2l-16-28-10-19-13-28-6-13z" fill="#2363A9"/>
<path transform="translate(641,1041)" d="m0 0h24l5 2 33 3 10 3 3 4 1 10-2 10-8 12h-2l-2 5 5 2 4 1 1 1 7 1 2 4 4-1-2 3-29 10 1 2-34 12-25 10-20 9-22 11-22 13-12 8-17 13-14 12-11 11-11 14-9 13-10 18h-1v-56l2-18 5-21 6-17 8-16 9-15 10-13 14-15 11-9 15-11 23-12 16-6 26-6z" fill="#283C7C"/>
<path transform="translate(700,760)" d="m0 0 11 1 35 6 18 5 16 7 11 7 10 8 14 14 7 10 8 14 5 12 4 15 2 10v26l-3 16-6 18-8 16-6 8-6 11-2 4-7 3-4-1 3-13 1-7v-23l-4-19-4-10-7-11-9-10-8-6-17-7-13-3-9-1-10-2-7-1-20-1-7-1-56-3-9-1 2-2h21l1-3 2-2-6-3 2-2v-3l5-1h2v-6l9-7 10-13 5-6h2l1-4 10-7 10-6 11-8 1-4-5-5-6-3 1-3z" fill="#273C7C"/>
<path transform="translate(1042,537)" d="m0 0h16l20 4 18 6 19 10 11 8 11 9 7 7 11 14 8 13 8 17 3 6 24-7 24-5 27-4-1 3-11 6-16 12-13 11-11 12-12 17-10 19-9 24-5 24-1 8-2 50-2 20h-1l-1-7-5 1h-13l-3-2v-30l2-7 9-4v-11l-1-8 1-8-4-11-1-3-14-2-1 5-4-1-6 2h-5l-3-2-12-2-3-7 1-9 6-15h2l1-6-2 1 2-5 9-12 9-10 10-10 14-10 6-5 19-9h2l-3-5-8-7-14-8-21-7-12-3-22-3-10-1h-38v-39l70-1-70-1z" fill="#283C7C"/>
<path transform="translate(823,1120)" d="m0 0 4 1-10 6-18 11-16 12-11 9-17 17-11 14-9 11-8 9-8 7-11 9-15 10-23 11-18 6-20 4-9 1h-88l2-5 8-10 9-10 8-8 11-9 18-13 24-14 16-8 19-9 28-11 19-7 28-9 40-11 24-6z" fill="#283C7C"/>
<path transform="translate(838,517)" d="m0 0 7 6 16 12 23 12 16 5 20 4h33l19-3 12-4 15-6 21-5 7-1h13v22h-70l-6 2h76v47l-3-3v-3l-20 4-15 5-18 8-16 10-16 13-14 14-13 17-7 11-5 10-1 4-1 13h-2l-3-14-1-7v-31l3-18 7-21v-2l-14-7-12-9-10-9-10-10-11-16-6-11-7-15-7-21z" fill="#283D7D"/>
<path transform="translate(352,465)" d="m0 0 3 1 7 11 14 19 11 13 4 6 2 4 16 16 8 7 13 11 11 8 19 13 20 12 6 3v2l5 2v2l5 2 1 6-2 6-15 6-13 10-7 4-10 6-5 4h-2v2l-3 3-1 11-4 1-9-3-3-2h-3l-13-14-8-10-9-13-9-15-8-16-8-20-6-21-4-29-3-47z" fill="#2363A9"/>
<path transform="translate(1026,665)" d="m0 0 3 1 4 1 10 1h3l1 2 5 1v6l5 1v2l4 2 11 6 2 3v7h-2l-2 4-2 5-19 7-15 10-11 11-10 14-9 16-9 20-15 39-11 26-11 23-12 19-8 11-3-1v2l-5 4-8 10-3 1 1-4 5-8 6-14 10-27 5-19 3-14 5-27 2-23 1-19 2-14 5-17 8-16 9-15 11-13 11-10 15-10z" fill="#34A5DC"/>
<path transform="translate(657,343)" d="m0 0h1l3 36 5 28 3 13v7l6 20 5 12 5 14 4 7 9 19 11 20-1 2-5-1-2-5-11-2-6-2-9-2v2h-6l-7-4-18-2-4-4-5-2v2l-3 1-2-1v-2l-3-1v-3h-2l-5-6-3-5-8-14-6-16h-2l-3-11 1-6 8-19 8-16 10-18 10-15 10-13 11-12z" fill="#2362A8"/>
<path transform="translate(738,860)" d="m0 0 12 2 12 4 12 6 12 11 8 11 6 14 4 19v23l-3 17v4l-3 2-15 5-16 3-8 1h-19l-27-3-25-5-33-11-20-9-23-12-22-14-12-9h3l15 10 19 12 17 9 9 4 21 9 18 5 9 3 27 5h13l-5-3v-2l-4-2v-8l6-11h6l6 2-4-6-4-5v-2h-2l-1-6 3-6h5l1-2 2-35 1-7-2-10-3-9 4-3z" fill="#2481C2"/>
<path transform="translate(632,852)" d="m0 0h20l36 2 7 1 20 1 15 2 10 3-4 3h-2l3 5 2 6 1 12-1 3-2 35-2 3h-5l-2 7v4h2l8 11v2l-12-1-5 10v8l3 2v2l4 1 2 3h-14l-27-5-27-8-15-6 2-1-1-5 7 1-1-4 1 2 2-1v-3l5-2-2-4 4-6 4-7h4v-10l1-13 5-11v-7l-2-4-2-7-5-11-2-2 1-5 2-3-38-2z" fill="#2A8FCC"/>
<path transform="translate(600,849)" d="m0 0 18 2 45 3 7 1-2 4 1 5 2 2 4 10 3 9 1 2v7l-5 11-1 19-1 4-4 1-3 6-4 6 2 4-6 3 1 3-4 1 2 1-4 1h-3v3l-6-1-24-12-14-8-7-5v-2l5-2 6-3 3-6 2-9v-8l1-5 1-9h-2l-1-3 1-3-2-3-3-9-3-5-1-5 2-2-1-2 3-3-9-2z" fill="#34A5DC"/>
<path transform="translate(818,814)" d="m0 0 4 4 8 14 5 12 4 15 2 10v26l-3 16-6 18-8 16-6 8-6 11-2 4-7 3-4-1 3-13 1-7v-23l-4-19-4-10-7-11-9-10-8-6-8-4 4-2 2 1v-6l-9-3v-3l4-2 6-2 8-3 21-2 10-5 10-6 3-4-1-7-3-3v-4z" fill="#293A88"/>
<path transform="translate(823,1120)" d="m0 0 4 1-10 6-18 11-16 12-11 9-17 17-11 14-9 11-8 9-8 7-11 9-7 5h-2l2-4 6-7 2-1 1-7-4-2-7-1-3-3-3-7-1-7-5-2-2-5-6-4-1-5h2l-2-4-5-1h-5l-2-4 1-2 30-11 28-9 40-11 24-6z" fill="#282560"/>
<path transform="translate(529,1107)" d="m0 0h7l2 5 3-2 2 10 3 11 3 12v11l4 6 9 4-1 3-6 4-3 7-8 8-4 3h-2l-2 4-5 4h-2v2h-2v2h-2v2l-6 5-3 5-1 4-13 17-13 23h-1v-56l2-18 3-14 1 2h2l1-8 6-18 6-10 6-12 2-3h2l1-4 4-6h2v-2z" fill="#2363A9"/>
<path transform="translate(1038,614)" d="m0 0 2 1 1 23h1l1-21 6-1v-2h16l13 6 5 2 18 4 13 7 4 6 2 6 8 4-1 1h-7v2h-2l1 3-2 2-8-2-14-1-17-1-18 2-17 4-13 5-14 7-14 10-13 12-10 13-1-2v-2l-3-2-1-3v-7l2-4 2-9 11-24 11-11 9-7 11-7 11-8 5-4h2z" fill="#283C7C"/>
<path transform="translate(1026,665)" d="m0 0 3 1 4 1 10 1h3l1 2 5 1v6l5 1v2l4 2 11 6 2 3v7h-2l-2 4-2 5-19 7-15 10-11 11-10 14-9 16-2 5h-2l1-5 2-3 3-9 4-8 1-6-2-2-8 2-8-1-11-2-4-1h-2l-2-3-5-2 1-6 4-11 7-11 11-13 11-10 15-10z" fill="#2A8FCC"/>
<path transform="translate(632,852)" d="m0 0h20l36 2 19 2 1 2-8 1-1 5 4 7 1 9-2 12-3 14 6 13 3 3v2h2v2l-5-2-5-3-3 1v14l-2 12-3 3h-2v5l-3 2 1 5-2 1v3l-3 2-11-2-15-5-10-4 2-1-1-5 7 1-1-4 1 2 2-1v-3l5-2-2-4 4-6 4-7h4v-10l1-13 5-11v-7l-2-4-2-7-5-11-2-2 1-5 2-3-38-2z" fill="#2F98D2"/>
<path transform="translate(1026,665)" d="m0 0 3 1 4 1 10 1h3l1 2 5 1v6l5 1v2l4 2 11 6 2 3v7h-2l-2 4-2 5-19 7-15 10-5 5h-2v-3l8-6 4-5 3-2 3-7-16-2-3-3-11-6-4-2-8-1-7 3-5-1-7 6 2-4 9-10 12-10 16-10z" fill="#2481C2"/>
<path transform="translate(788,896)" d="m0 0 3 1 2 5 3 1 2 9h3l3 15v23l-3 17v4l-3 2-15 5-16 3-8 1h-19l-27-3-25-5-33-11-20-9-23-12-22-14-12-9h3l15 10 19 12 17 9 9 4 21 9 18 5 9 3 27 5 18 2h24l12-3 1-4-5-2-1-3 4-7 5-5-1-4 3-7 2-6 4-3h2l3-12 2-1-1-14 1-2z" fill="#2364A9"/>
<path transform="translate(959,812)" d="m0 0 2 3 2 9 3 8 3 1 3-3 7-11 2-1-2 9-14 32-10 19-14 21-4 4-2-1v2l-5 4-8 10-3 1 1-4 5-8 6-14 10-27 5-19 3-14 3-17 1 4h2l2-4z" fill="#34A5DC"/>
<path transform="translate(574,1218)" d="m0 0h3l3 6 6 2v2l3-1 4 11 4 4v2h2l2 4v5l-4 2-12 1 5 1v1h-55l2-5 5-7 1 2h2l2-5 5-6h2v-2h2v-2l12-9 4-4h2z" fill="#2362A7"/>
<path transform="translate(991,764)" d="m0 0h3l1 6v9l-6 17-6 13-5 13-7 11-3 1-3-2-3-8-3-11-4 7h-2l1-14 2-11 6-2 4-9 7-8 14-7z" fill="#3BB0E6"/>
<path transform="translate(443,762)" d="m0 0 6 5 5 7 8 7v2l4 2 1 3 4 2 13 11 11 8 9 6-3 2v5l-3 1-2 8 3 6 3 5 5 8 3 3v2h2l7 8 14 15 14 13 11 9 11 10 10 7-3 1-16-13-14-12-13-12-20-20-7-8-12-14-13-16-13-18-18-27-6-10z" fill="#34A5DC"/>
<path transform="translate(978,708)" d="m0 0 1 3v2h2v2l5-1h11l10 4h14l4 2-1 6-2 3-1 9-8 11-9 16-2 5h-2l1-5 2-3 3-9 4-8 1-6-2-2-8 2-8-1-11-2-4-1h-2l-2-3-5-2 1-6 4-11z" fill="#2F98D2"/>
<path transform="translate(1027,537)" d="m0 0h13v22h-68l-2-2 4-1v-2l-2-1 12-4 15-6 21-5z" fill="#283E7E"/>
<path transform="translate(840,869)" d="m0 0h1v26l-3 16-6 18-8 16-6 8-6 11-2 4-7 3-4-1 3-8 4-1 2 1v-7l2-8 3-9 1-5h2l-1-3v-9l2-5 9-4 5 1 3-5 2-5 2-7 1-14z" fill="#283B7B"/>
<path transform="translate(777,1071)" d="m0 0h39l1 1v5l-4 3 2 2-25 5v-4h-2v-2l-4 1-5-2-2-3z" fill="#283C7C"/>
<path transform="translate(443,762)" d="m0 0 6 5-1 2 4 6 4 8 7 10 13 19 7 9 6 7 1 4 4 2 9 12 6 5 1 4h2l7 8 14 15 14 13 11 9 11 10 10 7-3 1-16-13-14-12-13-12-20-20-7-8-12-14-13-16-13-18-18-27-6-10z" fill="#2B8FCC"/>
<path transform="translate(954,873)" d="m0 0h1v5l-14 21-4 4-2-1v2l-5 4-8 10-3 1 1-4 5-8 6-14 5-13h1v6l4-1 4-2 7-8z" fill="#2A8ECC"/>
<path transform="translate(578,918)" d="m0 0 5 2 13 9 19 12 17 9 9 4 21 9 18 5 9 3 27 5 18 2 2 1v2l-16-1-23-4-19-5-23-8-20-9-23-12-22-14-12-9z" fill="#256EB2"/>
<path transform="translate(790,1055)" d="m0 0h25l2 7-1 4h-29l-1-1 1-9z" fill="#283C7C"/>
<path transform="translate(1118,561)" d="m0 0 4 1 14 11 8 8 11 14 8 13 8 17-1 4-4-4-4-10-5-5-3-8-7-11-12-14-12-11z" fill="#28326D"/>
<path transform="translate(970,842)" d="m0 0 1 4-13 27-3 3-1-2-11 11-4 2-2-1v-9l3-8 2 4h6l4-1 2-4h2l2-5 11-20z" fill="#2F97D2"/>
<path transform="translate(823,1120)" d="m0 0 4 1-10 6-18 11-2-1-7 1-3-1v-5l7-3v-2z" fill="#283D7C"/>
<path transform="translate(818,677)" d="m0 0 5 2 13 10 13 12 12 15 10 16 8 16 1 4-3-1-8-15-6-11-12-16-12-13-11-10-10-7z" fill="#283570"/>
<path transform="translate(390,515)" d="m0 0 4 2 10 11 8 7 10 9 13 10 18 13 15 9 16 9-1 2-5-1-11-7-7-4-19-13-12-9-13-11-16-15-10-10z" fill="#295292"/>
<path transform="translate(788,1042)" d="m0 0h27l2 3v5l-22 1-8-1v-7z" fill="#283C7C"/>
<path transform="translate(372,577)" d="m0 0 3 4 7 14 11 18 9 13 11 12 8 10 1 2-4-1-11-12-8-10-9-13-9-15-8-16z" fill="#284D8D"/>
<path transform="translate(951,880)" d="m0 0 1 3-11 16-4 4-2-1v2l-5 4-8 10-3 1 1-4 5-8 5-11 1 3 7-3 5-4 2-5z" fill="#2482C3"/>
<path transform="translate(967,554)" d="m0 0h7v2l-4 1v2l-12 1-10 2-16-1-10-2v-1l22-1z" fill="#282C66"/>
<path transform="translate(523,1110)" d="m0 0v3l-4 7h-2l-2 6-10 17-6 16-3 12h-2l1-9 6-17 8-16 9-15z" fill="#284888"/>
<path transform="translate(578,918)" d="m0 0 5 2 13 9 19 12 17 9 9 4 10 5-1 2-29-14-17-10-21-14z" fill="#2671B3"/>
<path transform="translate(514,710)" d="m0 0 10 3 12 5 18 7 7 3v2l-11-3-33-13-3-2z" fill="#293C77"/>
<path transform="translate(823,1120)" d="m0 0 4 1-10 6-12 7-2-3 3-2-5-1 2-3z" fill="#283772"/>
<path transform="translate(1078,784)" d="m0 0 3 3v26l-3 1-1-2v-24z" fill="#283C7C"/>
<path transform="translate(574,1215)" d="m0 0 2 1-2 4-11 9-5 4h-2v2h-2v2h-2l-2 4-5 7h-2l1-4 11-12 7-7 11-9z" fill="#295393"/>
<path transform="translate(1157,759)" d="m0 0h1v25l-2 3-3-6v-11l3-10z" fill="#28235D"/>
<path transform="translate(558,1073)" d="m0 0 3 1v47h-2v-46l-2-1z" fill="#2362A8"/>
<path transform="translate(981,1038)" d="m0 0h5l-4 3-13 4-9-3 1-2 5-1z" fill="#283C7C"/>
<path transform="translate(775,1056)" d="m0 0h8v9l-1 1h-6l-2-2v-7z" fill="#283C7C"/>
<path transform="translate(352,465)" d="m0 0 3 1 7 11 14 19 5 6-1 3-14-18-9-13-3-2z" fill="#295594"/>
<path transform="translate(995,779)" d="m0 0 1 4-8 20-6 16-2-1 2-9 7-16 5-13z" fill="#36A8DF"/>
<path transform="translate(399,625)" d="m0 0 4 2 9 10 9 11 1 2-4-1-11-12-8-10z" fill="#294E8D"/>
<path transform="translate(456,570)" d="m0 0 5 2 23 13-1 2-5-1-11-7-7-4-4-3z" fill="#284F8F"/>
<path transform="translate(1158,744)" d="m0 0h1v34h-1l-1-19h-3v-7-1l1-6z" fill="#2B4882"/>
<path transform="translate(970,842)" d="m0 0 1 4-9 19h-3l-1-2 11-20z" fill="#309BD5"/>
<path transform="translate(443,762)" d="m0 0 6 5-1 2 4 6 4 8 6 8v2l-3-1-14-22z" fill="#277DBD"/>
<path transform="translate(812,1079)" d="m0 0m-1 1 4 2-25 5 5-5 3-1z" fill="#293D78"/>
<path transform="translate(668,423)" d="m0 0h2l9 27v2l-3-1-4-10-4-14z" fill="#285191"/>
<path transform="translate(1139,646)" d="m0 0h3v2l-17 10-4-1 3-3z" fill="#284786"/>
<path transform="translate(532,1195)" d="m0 0m-1 1m-2 1h2l-1 4-11 11-2 3h-2l2-5 6-7h2v-2h2v-2h2z" fill="#274788"/>
<path transform="translate(502,1143)" d="m0 0h2l-3 10-5 18h-2l1-9 6-17z" fill="#295191"/>
<path transform="translate(390,515)" d="m0 0 4 2 10 11 8 7 1 2-5-2-18-18z" fill="#2A5493"/>
<path transform="translate(461,793)" d="m0 0h2l13 19 5 8-3-1-14-20-3-4z" fill="#2B91CE"/>
<path transform="translate(372,577)" d="m0 0 3 4 7 14 3 5-1 3-3-4-8-16z" fill="#295595"/>
<path transform="translate(951,880)" d="m0 0 1 3-11 16-4 4 1-4 5-7 2-5z" fill="#2679BB"/>
<path transform="translate(484,803)" d="m0 0 4 1 8 6v2l-5 1-4-3v-3h-2z" fill="#3BAFE5"/>
<path transform="translate(514,710)" d="m0 0 10 3 10 5v2l-10-3-10-5z" fill="#283874"/>
<path transform="translate(1156,788)" d="m0 0h1v23h-2l-1-8-2-3h2z" fill="#282F6A"/>
<path transform="translate(846,531)" d="m0 0 7 2 3 3v2l-5 1-1 2-1-5-3-1z" fill="#2363A9"/>
<path transform="translate(717,977)" d="m0 0 17 1 2 1v2l-16-1z" fill="#256CB0"/>
<path transform="translate(1008,750)" d="m0 0 2 4-8 16h-2l1-5 2-3 3-9z" fill="#319CD6"/>
<path transform="translate(509,855)" d="m0 0h3l14 16-1 2-12-12z" fill="#2E96D1"/>
<path transform="translate(574,1215)" d="m0 0 2 1-2 4-11 9-2-1 8-9z" fill="#284989"/>
<path transform="translate(629,949)" d="m0 0 11 4 11 6-1 2-21-10z" fill="#2773B4"/>
<path transform="translate(602,451)" d="m0 0 2 3 5 13v3h-2l-5-13z" fill="#295190"/>
<path transform="translate(452,776)" d="m0 0 7 6 3 4-1 2h-3l-6-10z" fill="#2C93CF"/>
<path transform="translate(960,863)" d="m0 0 1 4-5 9-2-4z" fill="#2C93CF"/>
<path transform="translate(412,537)" d="m0 0 5 2 10 9-3 1-12-11z" fill="#284D8D"/>
<path transform="translate(496,839)" d="m0 0 5 5 8 7 1 4-4-2-10-12z" fill="#2A8CCA"/>
<path transform="translate(426,549)" d="m0 0 4 1 10 8-3 1-9-7z" fill="#295190"/>
<path transform="translate(493,1176)" d="m0 0 1 2-3 18h-1v-13l2-6z" fill="#284D8E"/>
<path transform="translate(727,542)" d="m0 0h2l10 14-1 3-11-15z" fill="#293B77"/>
<path transform="translate(494,1243)" d="m0 0 1 3-6 11-1-4 2-5h2z" fill="#295998"/>
<path transform="translate(352,465)" d="m0 0 3 1 7 12-4-2-4-4z" fill="#284C8C"/>
<path transform="translate(908,927)" d="m0 0h2v2h2l-2 4-5 3z" fill="#295B9A"/>
<path transform="translate(1053,709)" d="m0 0h2l-1 3-10 5-3-1z" fill="#2671B4"/>
<path transform="translate(1139,646)" d="m0 0h3v2l-8 5h-2l2-4z" fill="#285191"/>
</svg>
